<svg width="132" height="115" viewBox="0 0 132 115" fill="none" xmlns="http://www.w3.org/2000/svg">
<g opacity="0.3">
<mask id="mask0" mask-type="alpha" maskUnits="userSpaceOnUse" x="0" y="0" width="11" height="11">
<path d="M5.22838 10.4252C8.11594 10.4252 10.4568 8.09145 10.4568 5.21269C10.4568 2.33393 8.11594 0.000244141 5.22838 0.000244141C2.34082 0.000244141 0 2.33393 0 5.21269C0 8.09145 2.34082 10.4252 5.22838 10.4252Z" fill="url(#paint0_linear)"/>
</mask>
<g mask="url(#mask0)">
<path d="M5.22838 10.4252C8.11594 10.4252 10.4568 8.09145 10.4568 5.21269C10.4568 2.33393 8.11594 0.000244141 5.22838 0.000244141C2.34082 0.000244141 0 2.33393 0 5.21269C0 8.09145 2.34082 10.4252 5.22838 10.4252Z" fill="url(#paint1_linear)"/>
</g>
<mask id="mask1" mask-type="alpha" maskUnits="userSpaceOnUse" x="30" y="0" width="11" height="11">
<path d="M35.5096 10.4252C38.3972 10.4252 40.738 8.09145 40.738 5.21269C40.738 2.33393 38.3972 0.000244141 35.5096 0.000244141C32.6221 0.000244141 30.2812 2.33393 30.2812 5.21269C30.2812 8.09145 32.6221 10.4252 35.5096 10.4252Z" fill="url(#paint2_linear)"/>
</mask>
<g mask="url(#mask1)">
<path d="M35.5096 10.4252C38.3972 10.4252 40.738 8.09145 40.738 5.21269C40.738 2.33393 38.3972 0.000244141 35.5096 0.000244141C32.6221 0.000244141 30.2812 2.33393 30.2812 5.21269C30.2812 8.09145 32.6221 10.4252 35.5096 10.4252Z" fill="url(#paint3_linear)"/>
</g>
<mask id="mask2" mask-type="alpha" maskUnits="userSpaceOnUse" x="60" y="0" width="12" height="11">
<path d="M65.7904 10.4252C68.678 10.4252 71.0188 8.09145 71.0188 5.21269C71.0188 2.33393 68.678 0.000244141 65.7904 0.000244141C62.9028 0.000244141 60.562 2.33393 60.562 5.21269C60.562 8.09145 62.9028 10.4252 65.7904 10.4252Z" fill="url(#paint4_linear)"/>
</mask>
<g mask="url(#mask2)">
<path d="M65.7904 10.4252C68.678 10.4252 71.0188 8.09145 71.0188 5.21269C71.0188 2.33393 68.678 0.000244141 65.7904 0.000244141C62.9028 0.000244141 60.562 2.33393 60.562 5.21269C60.562 8.09145 62.9028 10.4252 65.7904 10.4252Z" fill="url(#paint5_linear)"/>
</g>
<mask id="mask3" mask-type="alpha" maskUnits="userSpaceOnUse" x="90" y="0" width="12" height="11">
<path d="M96.0717 10.4252C98.9592 10.4252 101.3 8.09145 101.3 5.21269C101.3 2.33393 98.9592 0.000244141 96.0717 0.000244141C93.1841 0.000244141 90.8433 2.33393 90.8433 5.21269C90.8433 8.09145 93.1841 10.4252 96.0717 10.4252Z" fill="url(#paint6_linear)"/>
</mask>
<g mask="url(#mask3)">
<path d="M96.0717 10.4252C98.9592 10.4252 101.3 8.09145 101.3 5.21269C101.3 2.33393 98.9592 0.000244141 96.0717 0.000244141C93.1841 0.000244141 90.8433 2.33393 90.8433 5.21269C90.8433 8.09145 93.1841 10.4252 96.0717 10.4252Z" fill="url(#paint7_linear)"/>
</g>
<mask id="mask4" mask-type="alpha" maskUnits="userSpaceOnUse" x="121" y="0" width="11" height="11">
<path d="M126.353 10.4252C129.24 10.4252 131.581 8.09145 131.581 5.21269C131.581 2.33393 129.24 0.000244141 126.353 0.000244141C123.465 0.000244141 121.124 2.33393 121.124 5.21269C121.124 8.09145 123.465 10.4252 126.353 10.4252Z" fill="url(#paint8_linear)"/>
</mask>
<g mask="url(#mask4)">
<path d="M126.353 10.4252C129.24 10.4252 131.581 8.09145 131.581 5.21269C131.581 2.33393 129.24 0.000244141 126.353 0.000244141C123.465 0.000244141 121.124 2.33393 121.124 5.21269C121.124 8.09145 123.465 10.4252 126.353 10.4252Z" fill="url(#paint9_linear)"/>
</g>
<mask id="mask5" mask-type="alpha" maskUnits="userSpaceOnUse" x="0" y="26" width="11" height="11">
<path d="M5.22838 36.596C8.11594 36.596 10.4568 34.2623 10.4568 31.3836C10.4568 28.5048 8.11594 26.1711 5.22838 26.1711C2.34082 26.1711 0 28.5048 0 31.3836C0 34.2623 2.34082 36.596 5.22838 36.596Z" fill="url(#paint10_linear)"/>
</mask>
<g mask="url(#mask5)">
<path d="M5.22838 36.596C8.11594 36.596 10.4568 34.2623 10.4568 31.3836C10.4568 28.5048 8.11594 26.1711 5.22838 26.1711C2.34082 26.1711 0 28.5048 0 31.3836C0 34.2623 2.34082 36.596 5.22838 36.596Z" fill="url(#paint11_linear)"/>
</g>
<mask id="mask6" mask-type="alpha" maskUnits="userSpaceOnUse" x="30" y="26" width="11" height="11">
<path d="M35.5096 36.596C38.3972 36.596 40.738 34.2623 40.738 31.3836C40.738 28.5048 38.3972 26.1711 35.5096 26.1711C32.6221 26.1711 30.2812 28.5048 30.2812 31.3836C30.2812 34.2623 32.6221 36.596 35.5096 36.596Z" fill="url(#paint12_linear)"/>
</mask>
<g mask="url(#mask6)">
<path d="M35.5096 36.596C38.3972 36.596 40.738 34.2623 40.738 31.3836C40.738 28.5048 38.3972 26.1711 35.5096 26.1711C32.6221 26.1711 30.2812 28.5048 30.2812 31.3836C30.2812 34.2623 32.6221 36.596 35.5096 36.596Z" fill="url(#paint13_linear)"/>
</g>
<mask id="mask7" mask-type="alpha" maskUnits="userSpaceOnUse" x="60" y="26" width="12" height="11">
<path d="M65.7904 36.596C68.678 36.596 71.0188 34.2623 71.0188 31.3836C71.0188 28.5048 68.678 26.1711 65.7904 26.1711C62.9028 26.1711 60.562 28.5048 60.562 31.3836C60.562 34.2623 62.9028 36.596 65.7904 36.596Z" fill="url(#paint14_linear)"/>
</mask>
<g mask="url(#mask7)">
<path d="M65.7904 36.596C68.678 36.596 71.0188 34.2623 71.0188 31.3836C71.0188 28.5048 68.678 26.1711 65.7904 26.1711C62.9028 26.1711 60.562 28.5048 60.562 31.3836C60.562 34.2623 62.9028 36.596 65.7904 36.596Z" fill="url(#paint15_linear)"/>
</g>
<mask id="mask8" mask-type="alpha" maskUnits="userSpaceOnUse" x="90" y="26" width="12" height="11">
<path d="M96.0717 36.596C98.9592 36.596 101.3 34.2623 101.3 31.3836C101.3 28.5048 98.9592 26.1711 96.0717 26.1711C93.1841 26.1711 90.8433 28.5048 90.8433 31.3836C90.8433 34.2623 93.1841 36.596 96.0717 36.596Z" fill="url(#paint16_linear)"/>
</mask>
<g mask="url(#mask8)">
<path d="M96.0717 36.596C98.9592 36.596 101.3 34.2623 101.3 31.3836C101.3 28.5048 98.9592 26.1711 96.0717 26.1711C93.1841 26.1711 90.8433 28.5048 90.8433 31.3836C90.8433 34.2623 93.1841 36.596 96.0717 36.596Z" fill="url(#paint17_linear)"/>
</g>
<mask id="mask9" mask-type="alpha" maskUnits="userSpaceOnUse" x="121" y="26" width="11" height="11">
<path d="M126.353 36.596C129.24 36.596 131.581 34.2623 131.581 31.3836C131.581 28.5048 129.24 26.1711 126.353 26.1711C123.465 26.1711 121.124 28.5048 121.124 31.3836C121.124 34.2623 123.465 36.596 126.353 36.596Z" fill="url(#paint18_linear)"/>
</mask>
<g mask="url(#mask9)">
<path d="M126.353 36.596C129.24 36.596 131.581 34.2623 131.581 31.3836C131.581 28.5048 129.24 26.1711 126.353 26.1711C123.465 26.1711 121.124 28.5048 121.124 31.3836C121.124 34.2623 123.465 36.596 126.353 36.596Z" fill="url(#paint19_linear)"/>
</g>
<mask id="mask10" mask-type="alpha" maskUnits="userSpaceOnUse" x="0" y="52" width="11" height="11">
<path d="M5.22838 62.7126C8.11594 62.7126 10.4568 60.3789 10.4568 57.5001C10.4568 54.6213 8.11594 52.2876 5.22838 52.2876C2.34082 52.2876 0 54.6213 0 57.5001C0 60.3789 2.34082 62.7126 5.22838 62.7126Z" fill="url(#paint20_linear)"/>
</mask>
<g mask="url(#mask10)">
<path d="M5.22838 62.7126C8.11594 62.7126 10.4568 60.3789 10.4568 57.5001C10.4568 54.6213 8.11594 52.2876 5.22838 52.2876C2.34082 52.2876 0 54.6213 0 57.5001C0 60.3789 2.34082 62.7126 5.22838 62.7126Z" fill="url(#paint21_linear)"/>
</g>
<mask id="mask11" mask-type="alpha" maskUnits="userSpaceOnUse" x="30" y="52" width="11" height="11">
<path d="M35.5096 62.7126C38.3972 62.7126 40.738 60.3789 40.738 57.5001C40.738 54.6213 38.3972 52.2876 35.5096 52.2876C32.6221 52.2876 30.2812 54.6213 30.2812 57.5001C30.2812 60.3789 32.6221 62.7126 35.5096 62.7126Z" fill="url(#paint22_linear)"/>
</mask>
<g mask="url(#mask11)">
<path d="M35.5096 62.7126C38.3972 62.7126 40.738 60.3789 40.738 57.5001C40.738 54.6213 38.3972 52.2876 35.5096 52.2876C32.6221 52.2876 30.2812 54.6213 30.2812 57.5001C30.2812 60.3789 32.6221 62.7126 35.5096 62.7126Z" fill="url(#paint23_linear)"/>
</g>
<mask id="mask12" mask-type="alpha" maskUnits="userSpaceOnUse" x="60" y="52" width="12" height="11">
<path d="M65.7904 62.7126C68.678 62.7126 71.0188 60.3789 71.0188 57.5001C71.0188 54.6213 68.678 52.2876 65.7904 52.2876C62.9028 52.2876 60.562 54.6213 60.562 57.5001C60.562 60.3789 62.9028 62.7126 65.7904 62.7126Z" fill="url(#paint24_linear)"/>
</mask>
<g mask="url(#mask12)">
<path d="M65.7904 62.7126C68.678 62.7126 71.0188 60.3789 71.0188 57.5001C71.0188 54.6213 68.678 52.2876 65.7904 52.2876C62.9028 52.2876 60.562 54.6213 60.562 57.5001C60.562 60.3789 62.9028 62.7126 65.7904 62.7126Z" fill="url(#paint25_linear)"/>
</g>
<mask id="mask13" mask-type="alpha" maskUnits="userSpaceOnUse" x="90" y="52" width="12" height="11">
<path d="M96.0717 62.7126C98.9592 62.7126 101.3 60.3789 101.3 57.5001C101.3 54.6213 98.9592 52.2876 96.0717 52.2876C93.1841 52.2876 90.8433 54.6213 90.8433 57.5001C90.8433 60.3789 93.1841 62.7126 96.0717 62.7126Z" fill="url(#paint26_linear)"/>
</mask>
<g mask="url(#mask13)">
<path d="M96.0717 62.7126C98.9592 62.7126 101.3 60.3789 101.3 57.5001C101.3 54.6213 98.9592 52.2876 96.0717 52.2876C93.1841 52.2876 90.8433 54.6213 90.8433 57.5001C90.8433 60.3789 93.1841 62.7126 96.0717 62.7126Z" fill="url(#paint27_linear)"/>
</g>
<mask id="mask14" mask-type="alpha" maskUnits="userSpaceOnUse" x="121" y="52" width="11" height="11">
<path d="M126.353 62.7126C129.24 62.7126 131.581 60.3789 131.581 57.5001C131.581 54.6213 129.24 52.2876 126.353 52.2876C123.465 52.2876 121.124 54.6213 121.124 57.5001C121.124 60.3789 123.465 62.7126 126.353 62.7126Z" fill="url(#paint28_linear)"/>
</mask>
<g mask="url(#mask14)">
<path d="M126.353 62.7126C129.24 62.7126 131.581 60.3789 131.581 57.5001C131.581 54.6213 129.24 52.2876 126.353 52.2876C123.465 52.2876 121.124 54.6213 121.124 57.5001C121.124 60.3789 123.465 62.7126 126.353 62.7126Z" fill="url(#paint29_linear)"/>
</g>
<mask id="mask15" mask-type="alpha" maskUnits="userSpaceOnUse" x="0" y="78" width="11" height="11">
<path d="M5.22838 88.8835C8.11594 88.8835 10.4568 86.5497 10.4568 83.6709C10.4568 80.7922 8.11594 78.4585 5.22838 78.4585C2.34082 78.4585 0 80.7922 0 83.6709C0 86.5497 2.34082 88.8835 5.22838 88.8835Z" fill="url(#paint30_linear)"/>
</mask>
<g mask="url(#mask15)">
<path d="M5.22838 88.8835C8.11594 88.8835 10.4568 86.5497 10.4568 83.6709C10.4568 80.7922 8.11594 78.4585 5.22838 78.4585C2.34082 78.4585 0 80.7922 0 83.6709C0 86.5497 2.34082 88.8835 5.22838 88.8835Z" fill="url(#paint31_linear)"/>
</g>
<mask id="mask16" mask-type="alpha" maskUnits="userSpaceOnUse" x="30" y="78" width="11" height="11">
<path d="M35.5096 88.8835C38.3972 88.8835 40.738 86.5497 40.738 83.6709C40.738 80.7922 38.3972 78.4585 35.5096 78.4585C32.6221 78.4585 30.2812 80.7922 30.2812 83.6709C30.2812 86.5497 32.6221 88.8835 35.5096 88.8835Z" fill="url(#paint32_linear)"/>
</mask>
<g mask="url(#mask16)">
<path d="M35.5096 88.8835C38.3972 88.8835 40.738 86.5497 40.738 83.6709C40.738 80.7922 38.3972 78.4585 35.5096 78.4585C32.6221 78.4585 30.2812 80.7922 30.2812 83.6709C30.2812 86.5497 32.6221 88.8835 35.5096 88.8835Z" fill="url(#paint33_linear)"/>
</g>
<mask id="mask17" mask-type="alpha" maskUnits="userSpaceOnUse" x="60" y="78" width="12" height="11">
<path d="M65.7904 88.8835C68.678 88.8835 71.0188 86.5497 71.0188 83.6709C71.0188 80.7922 68.678 78.4585 65.7904 78.4585C62.9028 78.4585 60.562 80.7922 60.562 83.6709C60.562 86.5497 62.9028 88.8835 65.7904 88.8835Z" fill="url(#paint34_linear)"/>
</mask>
<g mask="url(#mask17)">
<path d="M65.7904 88.8835C68.678 88.8835 71.0188 86.5497 71.0188 83.6709C71.0188 80.7922 68.678 78.4585 65.7904 78.4585C62.9028 78.4585 60.562 80.7922 60.562 83.6709C60.562 86.5497 62.9028 88.8835 65.7904 88.8835Z" fill="url(#paint35_linear)"/>
</g>
<mask id="mask18" mask-type="alpha" maskUnits="userSpaceOnUse" x="90" y="78" width="12" height="11">
<path d="M96.0717 88.8835C98.9592 88.8835 101.3 86.5497 101.3 83.6709C101.3 80.7922 98.9592 78.4585 96.0717 78.4585C93.1841 78.4585 90.8433 80.7922 90.8433 83.6709C90.8433 86.5497 93.1841 88.8835 96.0717 88.8835Z" fill="url(#paint36_linear)"/>
</mask>
<g mask="url(#mask18)">
<path d="M96.0717 88.8835C98.9592 88.8835 101.3 86.5497 101.3 83.6709C101.3 80.7922 98.9592 78.4585 96.0717 78.4585C93.1841 78.4585 90.8433 80.7922 90.8433 83.6709C90.8433 86.5497 93.1841 88.8835 96.0717 88.8835Z" fill="url(#paint37_linear)"/>
</g>
<mask id="mask19" mask-type="alpha" maskUnits="userSpaceOnUse" x="121" y="78" width="11" height="11">
<path d="M126.353 88.8835C129.24 88.8835 131.581 86.5497 131.581 83.6709C131.581 80.7922 129.24 78.4585 126.353 78.4585C123.465 78.4585 121.124 80.7922 121.124 83.6709C121.124 86.5497 123.465 88.8835 126.353 88.8835Z" fill="url(#paint38_linear)"/>
</mask>
<g mask="url(#mask19)">
<path d="M126.353 88.8835C129.24 88.8835 131.581 86.5497 131.581 83.6709C131.581 80.7922 129.24 78.4585 126.353 78.4585C123.465 78.4585 121.124 80.7922 121.124 83.6709C121.124 86.5497 123.465 88.8835 126.353 88.8835Z" fill="url(#paint39_linear)"/>
</g>
<mask id="mask20" mask-type="alpha" maskUnits="userSpaceOnUse" x="0" y="104" width="11" height="12">
<path d="M5.22838 115C8.11594 115 10.4568 112.666 10.4568 109.788C10.4568 106.909 8.11594 104.575 5.22838 104.575C2.34082 104.575 0 106.909 0 109.788C0 112.666 2.34082 115 5.22838 115Z" fill="url(#paint40_linear)"/>
</mask>
<g mask="url(#mask20)">
<path d="M5.22838 115C8.11594 115 10.4568 112.666 10.4568 109.788C10.4568 106.909 8.11594 104.575 5.22838 104.575C2.34082 104.575 0 106.909 0 109.788C0 112.666 2.34082 115 5.22838 115Z" fill="url(#paint41_linear)"/>
</g>
<mask id="mask21" mask-type="alpha" maskUnits="userSpaceOnUse" x="30" y="104" width="11" height="12">
<path d="M35.5096 115C38.3972 115 40.738 112.666 40.738 109.788C40.738 106.909 38.3972 104.575 35.5096 104.575C32.6221 104.575 30.2812 106.909 30.2812 109.788C30.2812 112.666 32.6221 115 35.5096 115Z" fill="url(#paint42_linear)"/>
</mask>
<g mask="url(#mask21)">
<path d="M35.5096 115C38.3972 115 40.738 112.666 40.738 109.788C40.738 106.909 38.3972 104.575 35.5096 104.575C32.6221 104.575 30.2812 106.909 30.2812 109.788C30.2812 112.666 32.6221 115 35.5096 115Z" fill="url(#paint43_linear)"/>
</g>
<mask id="mask22" mask-type="alpha" maskUnits="userSpaceOnUse" x="60" y="104" width="12" height="12">
<path d="M65.7904 115C68.678 115 71.0188 112.666 71.0188 109.788C71.0188 106.909 68.678 104.575 65.7904 104.575C62.9028 104.575 60.562 106.909 60.562 109.788C60.562 112.666 62.9028 115 65.7904 115Z" fill="url(#paint44_linear)"/>
</mask>
<g mask="url(#mask22)">
<path d="M65.7904 115C68.678 115 71.0188 112.666 71.0188 109.788C71.0188 106.909 68.678 104.575 65.7904 104.575C62.9028 104.575 60.562 106.909 60.562 109.788C60.562 112.666 62.9028 115 65.7904 115Z" fill="url(#paint45_linear)"/>
</g>
<mask id="mask23" mask-type="alpha" maskUnits="userSpaceOnUse" x="90" y="104" width="12" height="12">
<path d="M96.0717 115C98.9592 115 101.3 112.666 101.3 109.788C101.3 106.909 98.9592 104.575 96.0717 104.575C93.1841 104.575 90.8433 106.909 90.8433 109.788C90.8433 112.666 93.1841 115 96.0717 115Z" fill="url(#paint46_linear)"/>
</mask>
<g mask="url(#mask23)">
<path d="M96.0717 115C98.9592 115 101.3 112.666 101.3 109.788C101.3 106.909 98.9592 104.575 96.0717 104.575C93.1841 104.575 90.8433 106.909 90.8433 109.788C90.8433 112.666 93.1841 115 96.0717 115Z" fill="url(#paint47_linear)"/>
</g>
<mask id="mask24" mask-type="alpha" maskUnits="userSpaceOnUse" x="121" y="104" width="11" height="12">
<path d="M126.353 115C129.24 115 131.581 112.666 131.581 109.788C131.581 106.909 129.24 104.575 126.353 104.575C123.465 104.575 121.124 106.909 121.124 109.788C121.124 112.666 123.465 115 126.353 115Z" fill="url(#paint48_linear)"/>
</mask>
<g mask="url(#mask24)">
<path d="M126.353 115C129.24 115 131.581 112.666 131.581 109.788C131.581 106.909 129.24 104.575 126.353 104.575C123.465 104.575 121.124 106.909 121.124 109.788C121.124 112.666 123.465 115 126.353 115Z" fill="url(#paint49_linear)"/>
</g>
</g>
<defs>
<linearGradient id="paint0_linear" x1="54.996" y1="131.134" x2="-16.4057" y2="-50.6697" gradientUnits="userSpaceOnUse">
<stop/>
<stop offset="1" stop-color="white"/>
</linearGradient>
<linearGradient id="paint1_linear" x1="54.996" y1="131.134" x2="-16.4057" y2="-50.6697" gradientUnits="userSpaceOnUse">
<stop stop-color="#97C3F9"/>
<stop offset="1" stop-color="#93C1F9"/>
</linearGradient>
<linearGradient id="paint2_linear" x1="81.2007" y1="120.843" x2="9.79907" y2="-60.961" gradientUnits="userSpaceOnUse">
<stop/>
<stop offset="1" stop-color="white"/>
</linearGradient>
<linearGradient id="paint3_linear" x1="81.2007" y1="120.843" x2="9.79907" y2="-60.961" gradientUnits="userSpaceOnUse">
<stop stop-color="#97C3F9"/>
<stop offset="1" stop-color="#93C1F9"/>
</linearGradient>
<linearGradient id="paint4_linear" x1="107.405" y1="110.551" x2="36.0032" y2="-71.2523" gradientUnits="userSpaceOnUse">
<stop/>
<stop offset="1" stop-color="white"/>
</linearGradient>
<linearGradient id="paint5_linear" x1="107.405" y1="110.551" x2="36.0032" y2="-71.2523" gradientUnits="userSpaceOnUse">
<stop stop-color="#97C3F9"/>
<stop offset="1" stop-color="#93C1F9"/>
</linearGradient>
<linearGradient id="paint6_linear" x1="133.609" y1="100.26" x2="62.2076" y2="-81.5442" gradientUnits="userSpaceOnUse">
<stop/>
<stop offset="1" stop-color="white"/>
</linearGradient>
<linearGradient id="paint7_linear" x1="133.609" y1="100.26" x2="62.2076" y2="-81.5442" gradientUnits="userSpaceOnUse">
<stop stop-color="#97C3F9"/>
<stop offset="1" stop-color="#93C1F9"/>
</linearGradient>
<linearGradient id="paint8_linear" x1="159.813" y1="89.9682" x2="88.4119" y2="-91.8357" gradientUnits="userSpaceOnUse">
<stop/>
<stop offset="1" stop-color="white"/>
</linearGradient>
<linearGradient id="paint9_linear" x1="159.813" y1="89.9682" x2="88.4119" y2="-91.8357" gradientUnits="userSpaceOnUse">
<stop stop-color="#97C3F9"/>
<stop offset="1" stop-color="#93C1F9"/>
</linearGradient>
<linearGradient id="paint10_linear" x1="46.0538" y1="134.646" x2="-25.3466" y2="-47.1569" gradientUnits="userSpaceOnUse">
<stop/>
<stop offset="1" stop-color="white"/>
</linearGradient>
<linearGradient id="paint11_linear" x1="46.0538" y1="134.646" x2="-25.3466" y2="-47.1569" gradientUnits="userSpaceOnUse">
<stop stop-color="#97C3F9"/>
<stop offset="1" stop-color="#93C1F9"/>
</linearGradient>
<linearGradient id="paint12_linear" x1="72.2583" y1="124.354" x2="0.857901" y2="-57.4488" gradientUnits="userSpaceOnUse">
<stop/>
<stop offset="1" stop-color="white"/>
</linearGradient>
<linearGradient id="paint13_linear" x1="72.2583" y1="124.354" x2="0.857901" y2="-57.4488" gradientUnits="userSpaceOnUse">
<stop stop-color="#97C3F9"/>
<stop offset="1" stop-color="#93C1F9"/>
</linearGradient>
<linearGradient id="paint14_linear" x1="98.4623" y1="114.062" x2="27.0619" y2="-67.7401" gradientUnits="userSpaceOnUse">
<stop/>
<stop offset="1" stop-color="white"/>
</linearGradient>
<linearGradient id="paint15_linear" x1="98.4623" y1="114.062" x2="27.0619" y2="-67.7401" gradientUnits="userSpaceOnUse">
<stop stop-color="#97C3F9"/>
<stop offset="1" stop-color="#93C1F9"/>
</linearGradient>
<linearGradient id="paint16_linear" x1="124.667" y1="103.771" x2="53.2664" y2="-78.0316" gradientUnits="userSpaceOnUse">
<stop/>
<stop offset="1" stop-color="white"/>
</linearGradient>
<linearGradient id="paint17_linear" x1="124.667" y1="103.771" x2="53.2664" y2="-78.0316" gradientUnits="userSpaceOnUse">
<stop stop-color="#97C3F9"/>
<stop offset="1" stop-color="#93C1F9"/>
</linearGradient>
<linearGradient id="paint18_linear" x1="150.871" y1="93.4795" x2="79.4707" y2="-88.3229" gradientUnits="userSpaceOnUse">
<stop/>
<stop offset="1" stop-color="white"/>
</linearGradient>
<linearGradient id="paint19_linear" x1="150.871" y1="93.4795" x2="79.4707" y2="-88.3229" gradientUnits="userSpaceOnUse">
<stop stop-color="#97C3F9"/>
<stop offset="1" stop-color="#93C1F9"/>
</linearGradient>
<linearGradient id="paint20_linear" x1="37.1113" y1="138.158" x2="-34.2903" y2="-43.6457" gradientUnits="userSpaceOnUse">
<stop/>
<stop offset="1" stop-color="white"/>
</linearGradient>
<linearGradient id="paint21_linear" x1="37.1113" y1="138.158" x2="-34.2903" y2="-43.6457" gradientUnits="userSpaceOnUse">
<stop stop-color="#97C3F9"/>
<stop offset="1" stop-color="#93C1F9"/>
</linearGradient>
<linearGradient id="paint22_linear" x1="63.3159" y1="127.867" x2="-8.08572" y2="-53.9373" gradientUnits="userSpaceOnUse">
<stop/>
<stop offset="1" stop-color="white"/>
</linearGradient>
<linearGradient id="paint23_linear" x1="63.3159" y1="127.867" x2="-8.08572" y2="-53.9373" gradientUnits="userSpaceOnUse">
<stop stop-color="#97C3F9"/>
<stop offset="1" stop-color="#93C1F9"/>
</linearGradient>
<linearGradient id="paint24_linear" x1="89.5199" y1="117.575" x2="18.1184" y2="-64.2287" gradientUnits="userSpaceOnUse">
<stop/>
<stop offset="1" stop-color="white"/>
</linearGradient>
<linearGradient id="paint25_linear" x1="89.5199" y1="117.575" x2="18.1184" y2="-64.2287" gradientUnits="userSpaceOnUse">
<stop stop-color="#97C3F9"/>
<stop offset="1" stop-color="#93C1F9"/>
</linearGradient>
<linearGradient id="paint26_linear" x1="115.724" y1="107.283" x2="44.3228" y2="-74.5204" gradientUnits="userSpaceOnUse">
<stop/>
<stop offset="1" stop-color="white"/>
</linearGradient>
<linearGradient id="paint27_linear" x1="115.724" y1="107.283" x2="44.3228" y2="-74.5204" gradientUnits="userSpaceOnUse">
<stop stop-color="#97C3F9"/>
<stop offset="1" stop-color="#93C1F9"/>
</linearGradient>
<linearGradient id="paint28_linear" x1="141.929" y1="96.992" x2="70.5271" y2="-84.8119" gradientUnits="userSpaceOnUse">
<stop/>
<stop offset="1" stop-color="white"/>
</linearGradient>
<linearGradient id="paint29_linear" x1="141.929" y1="96.992" x2="70.5271" y2="-84.8119" gradientUnits="userSpaceOnUse">
<stop stop-color="#97C3F9"/>
<stop offset="1" stop-color="#93C1F9"/>
</linearGradient>
<linearGradient id="paint30_linear" x1="28.169" y1="141.67" x2="-43.2327" y2="-40.1338" gradientUnits="userSpaceOnUse">
<stop/>
<stop offset="1" stop-color="white"/>
</linearGradient>
<linearGradient id="paint31_linear" x1="28.169" y1="141.67" x2="-43.2327" y2="-40.1338" gradientUnits="userSpaceOnUse">
<stop stop-color="#97C3F9"/>
<stop offset="1" stop-color="#93C1F9"/>
</linearGradient>
<linearGradient id="paint32_linear" x1="54.3736" y1="131.379" x2="-17.0281" y2="-50.4253" gradientUnits="userSpaceOnUse">
<stop/>
<stop offset="1" stop-color="white"/>
</linearGradient>
<linearGradient id="paint33_linear" x1="54.3736" y1="131.379" x2="-17.0281" y2="-50.4253" gradientUnits="userSpaceOnUse">
<stop stop-color="#97C3F9"/>
<stop offset="1" stop-color="#93C1F9"/>
</linearGradient>
<linearGradient id="paint34_linear" x1="80.5775" y1="121.087" x2="9.17597" y2="-60.7167" gradientUnits="userSpaceOnUse">
<stop/>
<stop offset="1" stop-color="white"/>
</linearGradient>
<linearGradient id="paint35_linear" x1="80.5775" y1="121.087" x2="9.17597" y2="-60.7167" gradientUnits="userSpaceOnUse">
<stop stop-color="#97C3F9"/>
<stop offset="1" stop-color="#93C1F9"/>
</linearGradient>
<linearGradient id="paint36_linear" x1="106.782" y1="110.796" x2="35.3804" y2="-71.0083" gradientUnits="userSpaceOnUse">
<stop/>
<stop offset="1" stop-color="white"/>
</linearGradient>
<linearGradient id="paint37_linear" x1="106.782" y1="110.796" x2="35.3804" y2="-71.0083" gradientUnits="userSpaceOnUse">
<stop stop-color="#97C3F9"/>
<stop offset="1" stop-color="#93C1F9"/>
</linearGradient>
<linearGradient id="paint38_linear" x1="132.986" y1="100.504" x2="61.5847" y2="-81.2999" gradientUnits="userSpaceOnUse">
<stop/>
<stop offset="1" stop-color="white"/>
</linearGradient>
<linearGradient id="paint39_linear" x1="132.986" y1="100.504" x2="61.5847" y2="-81.2999" gradientUnits="userSpaceOnUse">
<stop stop-color="#97C3F9"/>
<stop offset="1" stop-color="#93C1F9"/>
</linearGradient>
<linearGradient id="paint40_linear" x1="19.2266" y1="145.182" x2="-52.1751" y2="-36.6217" gradientUnits="userSpaceOnUse">
<stop/>
<stop offset="1" stop-color="white"/>
</linearGradient>
<linearGradient id="paint41_linear" x1="19.2266" y1="145.182" x2="-52.1751" y2="-36.6217" gradientUnits="userSpaceOnUse">
<stop stop-color="#97C3F9"/>
<stop offset="1" stop-color="#93C1F9"/>
</linearGradient>
<linearGradient id="paint42_linear" x1="45.4312" y1="134.891" x2="-25.9705" y2="-46.9132" gradientUnits="userSpaceOnUse">
<stop/>
<stop offset="1" stop-color="white"/>
</linearGradient>
<linearGradient id="paint43_linear" x1="45.4312" y1="134.891" x2="-25.9705" y2="-46.9132" gradientUnits="userSpaceOnUse">
<stop stop-color="#97C3F9"/>
<stop offset="1" stop-color="#93C1F9"/>
</linearGradient>
<linearGradient id="paint44_linear" x1="71.6352" y1="124.599" x2="0.233627" y2="-57.2045" gradientUnits="userSpaceOnUse">
<stop/>
<stop offset="1" stop-color="white"/>
</linearGradient>
<linearGradient id="paint45_linear" x1="71.6352" y1="124.599" x2="0.233627" y2="-57.2045" gradientUnits="userSpaceOnUse">
<stop stop-color="#97C3F9"/>
<stop offset="1" stop-color="#93C1F9"/>
</linearGradient>
<linearGradient id="paint46_linear" x1="97.8397" y1="114.308" x2="26.4381" y2="-67.4962" gradientUnits="userSpaceOnUse">
<stop/>
<stop offset="1" stop-color="white"/>
</linearGradient>
<linearGradient id="paint47_linear" x1="97.8397" y1="114.308" x2="26.4381" y2="-67.4962" gradientUnits="userSpaceOnUse">
<stop stop-color="#97C3F9"/>
<stop offset="1" stop-color="#93C1F9"/>
</linearGradient>
<linearGradient id="paint48_linear" x1="124.044" y1="104.016" x2="52.6424" y2="-77.7877" gradientUnits="userSpaceOnUse">
<stop/>
<stop offset="1" stop-color="white"/>
</linearGradient>
<linearGradient id="paint49_linear" x1="124.044" y1="104.016" x2="52.6424" y2="-77.7877" gradientUnits="userSpaceOnUse">
<stop stop-color="#97C3F9"/>
<stop offset="1" stop-color="#93C1F9"/>
</linearGradient>
</defs>
</svg>
